<?xml version="1.0" encoding="UTF-8" standalone="no"?>
<!-- Created with Inkscape (http://www.inkscape.org/) -->

<svg
   xmlns:dc="http://purl.org/dc/elements/1.1/"
   xmlns:cc="http://creativecommons.org/ns#"
   xmlns:rdf="http://www.w3.org/1999/02/22-rdf-syntax-ns#"
   xmlns:svg="http://www.w3.org/2000/svg"
   xmlns="http://www.w3.org/2000/svg"
   xmlns:xlink="http://www.w3.org/1999/xlink"
   xmlns:sodipodi="http://sodipodi.sourceforge.net/DTD/sodipodi-0.dtd"
   xmlns:inkscape="http://www.inkscape.org/namespaces/inkscape"
   version="1.1"
   id="svg950"
   width="401.18002"
   height="203.93489"
   viewBox="0 0 401.18002 203.93489"
   sodipodi:docname="concrete-logo.svg"
   inkscape:version="0.92.2 5c3e80d, 2017-08-06">
  <metadata
     id="metadata956">
    <rdf:RDF>
      <cc:Work
         rdf:about="">
        <dc:format>image/svg+xml</dc:format>
        <dc:type
           rdf:resource="http://purl.org/dc/dcmitype/StillImage" />
        <dc:title />
      </cc:Work>
    </rdf:RDF>
  </metadata>
  <defs
     id="defs954">
    <linearGradient
       inkscape:collect="always"
       id="linearGradient829">
      <stop
         style="stop-color:#000000;stop-opacity:1;"
         offset="0"
         id="stop825" />
      <stop
         style="stop-color:#000000;stop-opacity:0;"
         offset="1"
         id="stop827" />
    </linearGradient>
    <linearGradient
       inkscape:collect="always"
       xlink:href="#linearGradient829"
       id="linearGradient831"
       x1="25.632982"
       y1="183.89647"
       x2="374.91293"
       y2="183.89647"
       gradientUnits="userSpaceOnUse"
       gradientTransform="translate(-18)" />
  </defs>
  <sodipodi:namedview
     pagecolor="#ffffff"
     bordercolor="#666666"
     borderopacity="1"
     objecttolerance="10"
     gridtolerance="10"
     guidetolerance="10"
     inkscape:pageopacity="0"
     inkscape:pageshadow="2"
     inkscape:window-width="1317"
     inkscape:window-height="689"
     id="namedview952"
     showgrid="false"
     inkscape:zoom="1.4188667"
     inkscape:cx="200.59001"
     inkscape:cy="74.842695"
     inkscape:window-x="0"
     inkscape:window-y="0"
     inkscape:window-maximized="0"
     inkscape:current-layer="svg950" />
  <path
     style="fill:#a79344;fill-opacity:1;stroke:#a79344;stroke-width:1px;stroke-linecap:butt;stroke-linejoin:miter;stroke-opacity:1"
     d="M 400.68003,0.56204071 0.50229492,47.476104 1.0667479,157.1304 400.68003,109.08548 Z M 390.5062,10.735869 V 100.04251 L 10.676123,145.82572 V 56.519073 Z"
     id="path960"
     inkscape:connector-curvature="0" />
  <path
     style="fill:#a79344;fill-opacity:1;stroke:#a79344;stroke-width:1px;stroke-linecap:butt;stroke-linejoin:miter;stroke-opacity:1"
     d="m 56.41754,66.989511 v 13.389067 l 2.020593,3.49977 -16.00917,1.695987 2.330148,-4.035934 v -5.556233 l -1.58076,-0.912652 -9.542208,1.112489 -1.598695,0.999184 v 46.362141 l 1.398858,1.19902 9.792004,-0.99918 0.999184,-0.99918 v -6.59462 l -1.847529,-3.20001 15.836106,-1.59607 -2.230229,3.86287 v 13.12326 l -5.879174,5.87917 -22.665466,3.11348 -8.095056,-5.67286 0.199837,-59.074268 6.445569,-7.244917 24.03121,-3.146597 z"
     id="path991"
     inkscape:connector-curvature="0"
     sodipodi:nodetypes="ccccccccccccccccccccccccc" />
  <path
     style="fill:#a79344;fill-opacity:1;stroke:#a79344;stroke-width:1px;stroke-linecap:butt;stroke-linejoin:miter;stroke-opacity:1"
     d="m 96.785503,56.798369 -24.181646,2.996094 -6.394531,6.195313 v 60.750004 l 6.794922,4.99609 23.980465,-2.99609 6.195317,-6.19531 V 62.593291 Z m -7.99415,12.988282 1.59766,1.599609 v 44.96289 l -2.19727,1.99805 -8.392573,1 -1.400391,-1.39844 V 73.185088 l 2,-2.398437 z"
     id="path993"
     inkscape:connector-curvature="0" />
  <path
     style="fill:#a79344;fill-opacity:1;stroke:#a79344;stroke-width:1px;stroke-linecap:butt;stroke-linejoin:miter;stroke-opacity:1"
     d="m 156.33595,49.403872 -2.59788,4.796083 v 63.548115 l 1.79853,3.7969 -12.9894,1.79853 -17.78547,-40.167206 v 38.968186 l 2.1982,2.99755 -16.78629,1.79853 2.19821,-4.39641 V 58.996039 l -1.99837,-3.597063 13.78874,-1.798531 17.58564,40.566872 V 54.799466 l -1.79853,-3.197389 z"
     id="path997"
     inkscape:connector-curvature="0" />
  <path
     style="fill:#a79344;fill-opacity:1;stroke:#a79344;stroke-width:1px;stroke-linecap:butt;stroke-linejoin:miter;stroke-opacity:1"
     d="m 241.66635,39.411651 -32.77343,3.796875 1.79882,2.798828 v 66.144536 l -1.99804,3.19726 16.58594,-1.99804 -1.99805,-2.59766 V 87.772977 l 1.79883,-1.798826 2.79687,-0.199219 1.19922,0.798828 5.39649,21.38282 -1.4004,4.39648 16.1875,-1.99805 -1.79882,-1.79883 -6.19532,-24.580076 6.19532,-6.195313 V 44.808135 Z m -7.59375,12.990234 1.19922,1.597656 v 17.585938 l -1.19922,1.398437 -9.79296,1 -1.39844,-1 V 55.399932 l 1.79883,-1.798828 z"
     id="path999"
     inkscape:connector-curvature="0" />
  <path
     style="fill:#a79344;fill-opacity:1;stroke:#a79344;stroke-width:1px;stroke-linecap:butt;stroke-linejoin:miter;stroke-opacity:1"
     d="m 292.02514,33.416926 2.79772,13.18923 -4.19657,-1.398858 -18.58483,1.998369 -2.1982,1.598694 v 15.187598 l 0.79934,1.199021 6.59462,-0.59951 4.59625,-1.998369 v 15.387435 l -3.39723,-0.999184 -6.79445,0.599511 -1.79853,1.598694 v 15.78711 l 1.99837,1.59869 17.78547,-2.59788 4.99592,-2.39804 -1.99837,13.588913 -37.16964,4.39641 1.99836,-3.39723 V 41.010725 l -2.39804,-3.197389 z"
     id="path1003"
     inkscape:connector-curvature="0" />
  <path
     style="fill:#a79344;fill-opacity:1;stroke:#a79344;stroke-width:1px;stroke-linecap:butt;stroke-linejoin:miter;stroke-opacity:1"
     d="m 338.58712,27.621659 2.59788,13.389066 -3.59706,-0.999184 -9.79201,0.799347 -2.39804,1.598695 v 55.554634 l 1.5987,3.197393 -16.38662,1.79853 2.1982,-3.397223 v -55.55464 l -1.99837,-0.999184 -9.99184,1.199021 -3.59706,1.798531 1.79853,-13.788739 z"
     id="path1005"
     inkscape:connector-curvature="0"
     sodipodi:nodetypes="ccccccccccccccc" />
  <path
     sodipodi:nodetypes="ccccccccccccccccccccccccc"
     inkscape:connector-curvature="0"
     id="path1007"
     d="m 200.78136,49.578334 v 13.389067 l 2.02059,3.49977 -16.00916,1.695987 2.33014,-4.035934 v -5.556233 l -1.58076,-0.912652 -9.5422,1.112489 -1.5987,0.999184 v 46.362138 l 1.39886,1.19902 9.792,-0.99918 0.99919,-0.99918 v -6.594623 l -1.84753,-3.20001 15.8361,-1.59607 -2.23023,3.86287 v 13.123263 l -5.87917,5.87917 -22.66547,3.11348 -8.09505,-5.67286 0.19984,-59.074265 6.44556,-7.244917 24.03121,-3.146597 z"
     style="fill:#a79344;fill-opacity:1;stroke:#a79344;stroke-width:1px;stroke-linecap:butt;stroke-linejoin:miter;stroke-opacity:1" />
  <path
     inkscape:connector-curvature="0"
     id="path1009"
     d="m 381.97595,22.601494 2.79772,13.18923 -4.19657,-1.398858 -18.58483,1.998369 -2.1982,1.598694 v 15.187598 l 0.79934,1.199021 6.59462,-0.59951 4.59625,-1.998369 v 15.387435 l -3.39723,-0.999184 -6.79445,0.599511 -1.79853,1.598694 v 15.78711 l 1.99837,1.59869 17.78547,-2.59788 4.99592,-2.39804 -1.99837,13.588912 -37.16964,4.39641 1.99836,-3.39723 V 30.195293 l -2.39804,-3.197389 z"
     style="fill:#a79344;fill-opacity:1;stroke:#a79344;stroke-width:1px;stroke-linecap:butt;stroke-linejoin:miter;stroke-opacity:1" />
  <text
     xml:space="preserve"
     style="font-style:normal;font-weight:normal;font-size:40px;line-height:1.25;font-family:sans-serif;letter-spacing:0px;word-spacing:0px;fill:#a79344;fill-opacity:1;stroke:none;stroke-width:0.80000001;stroke-miterlimit:4;stroke-dasharray:none"
     x="6.43116"
     y="197.09634"
     id="text1015"><tspan
       sodipodi:role="line"
       id="tspan1013"
       x="6.43116"
       y="197.09634"
       style="font-style:normal;font-variant:normal;font-weight:bold;font-stretch:normal;font-size:34.66666794px;line-height:0;font-family:'Arial Black';-inkscape-font-specification:'Arial Black, Bold';letter-spacing:4px;word-spacing:8px;fill:#a79344;fill-opacity:1;stroke:#a79344;stroke-width:0.80000001;stroke-miterlimit:4;stroke-dasharray:none;stroke-opacity:1"
       dx="0"
       dy="0">Skateboard Shop</tspan></text>
</svg>
